<svg xmlns="http://www.w3.org/2000/svg" width="21.085" height="30.467" viewBox="0 0 21.085 30.467">
  <g id="Groupe_2257" data-name="Groupe 2257" transform="translate(-963 -31)">
    <path id="Union_3" data-name="Union 3" d="M1.05,23.431c1.138-2.346,0-9.219-.575-12.235A9,9,0,0,1,0,8.3C0,3.716,3.393,0,7.579,0c3.992,0,7.263,3.38,7.557,7.668l.058-.008a31.2,31.2,0,0,0,4.859,11.4c.426.544-13.537,5.154-17.835,5.153C1.259,24.215.781,23.986,1.05,23.431Z" transform="translate(963.5 31.5)" fill="#243153" stroke="#243153" stroke-width="1"/>
    <g id="Ellipse_1424" data-name="Ellipse 1424" transform="translate(972 55.467)" fill="#243153" stroke="#243153" stroke-width="1">
      <circle cx="3" cy="3" r="3" stroke="none"/>
      <circle cx="3" cy="3" r="2.5" fill="none"/>
    </g>
  </g>
</svg>
