<svg id="Layer_1" data-name="Layer 1" xmlns="http://www.w3.org/2000/svg" viewBox="0 0 1294.41 2092.14"><title>logo-alamo</title><polygon points="248.49 1028.33 246.94 1028.83 247.11 1027.45 248.49 1028.33" fill="#fefefe"/><polygon points="10.88 1093.35 9.68 1093.84 9.8 1092.64 10.88 1093.35" fill="#fefefe"/><path d="M2004.56,558.3c1.59-22,9.89-44.26-4.31-65.54-3.26-4.89,3.85-5.35,7-7.07,91.13,46.91,140.8,119.79,140,224.09-.68,87.54-74,160.73-164.8,162.06,51.1-55.85,64.28-122.44,62.85-193.72C2044.35,633.74,2031.23,593.79,2004.56,558.3Z" transform="translate(-852.79 -453.93)" fill="#1d1c1d"/><path d="M2000.25,492.76c-3.26-4.89,3.85-5.35,7-7.07-1-7.27-7.66-7.12-12.41-8.76-39.77-13.68-79.73-23.58-122.76-23-134,1.89-250,116.44-252.45,250.66-1.67,91.7,33.43,171.26,78.92,247.66,44.89,75.38,95.86,147.05,132.77,227.29,78.09,169.73,19.84,374.14-137.52,475.46-18.27,11.76-36.4,24.84-60.55,30,2-5.65,2.88-8.9,4.21-12,1.62-3.72,3.58-7.3,5.4-10.94,49.22-98.77,71.63-202.47,56.36-312.75-12.47-90.1-88.79-175.25-176.52-198.51-97.74-25.92-190.51-5.26-281.19,30.91-91.09,36.34-169.57,92.08-238.34,161.46C927,1420,874.45,1509.88,855,1617.47c-1.06,5.87-4.8,13.44.9,17.07,6.95,4.41,10.64-4.7,14.32-8.3,48.09-47,101.18-86.89,160.86-118,36.38-19,74-34.74,113.62-45.48,4.53-1.23,9.84-4.31,13.45-.13,4.71,5.46-1,10.18-3.62,14.42-9.24,15.1-18.45,30.28-28.81,44.61-6.28,8.68-5.56,15.53-.27,24.11,33.31,53.95,74.41,100.51,126.83,136.74a411.1,411.1,0,0,0,102.12,51.68L1246.87,1859.4l197.16-4.14a518,518,0,0,1-63.15,47.35c-18.61,11.78-22.1,23.72-15.43,43.62,15.37,45.84,29.09,92.23,43.39,138.43q42.88,138.59,85.62,277.23c16.59,54.06,32.58,108.3,49,162.4,5.73,18.85,17.4,26.29,37.09,19.07,15-5.52,3.83-19.36,1.4-27.41q-64.28-213.26-130.3-426c-22.23-72.14-14.19-140.19,27.75-203.29A386.55,386.55,0,0,1,1504,1854l333.68-7,28.49,24.59a18.43,18.43,0,1,0,24.09-27.91L1851,1809.84l-314,6.59c20.77-23,41.45-46,58.12-72.31,1.82-2.87,6.76-4.19,10.51-5.36,98.67-30.8,175.88-89,232.47-176.18,61.49-94.7,79.69-197.08,59-306.66-15.95-84.59-60.17-156.73-105.12-228.51-40.08-64-83.29-126.48-110-198-24-64.21-34-129.44-7.59-195.31,29.81-74.43,85.87-120.63,163.06-138,42.61-9.58,85.28-4.72,122.69,23.64,15.75,11.94,28.74,26.66,44.37,38.49C2006.15,536.29,2014.45,514,2000.25,492.76ZM927.64,1524.94l.12-1.2,1.08.71Zm237.25-65,.18-1.38,1.38.88Zm163.69,360.88,64.9-75.61c39,8.92,79.56,12.11,121.66,9.89,5.56-.29,13.36-3.49,16.32,4.05,2.33,5.93-4,9.54-7.34,13.53-13,15.45-26.44,30.47-40.43,44.88Zm258.7-134.32c-14,25.24-35,26.28-56.45,28.34-119.62,11.51-223.46-23.76-309.67-108.23-18.53-18.16-33.55-39.35-48.42-60.59-6.46-9.22-5.11-16.44.82-25.87,26.52-42.23,57.69-72.4,131.42-123-44.93,1.91-84,5-122.5,12.94-84,17.3-160.37,52.19-230.76,100.78-5.79,4-12.68,12.38-19.46,6.4-7-6.2.88-13.88,4.25-20,39.61-72,92.65-132.1,157-183.51,74.79-59.72,157-103.49,250.12-124.74,68.62-15.66,138.12-21,203.75,13,74.91,38.81,112.72,101.95,117,185.78C1669.84,1495.36,1638.9,1593.17,1587.27,1686.48Z" transform="translate(-852.79 -453.93)" fill="#ed82ab"/></svg>