<svg xmlns="http://www.w3.org/2000/svg" viewBox="0 0 215.49 186.81"><defs><style>.cls-1{fill:none;stroke:#000;stroke-miterlimit:10;}.cls-2{fill:#ff3ce2;}.cls-3{fill:#5a3eff;}.cls-4{fill:#409bff;}</style></defs><title>Fichier 1</title><g id="Calque_2" data-name="Calque 2"><g id="Calque_1-2" data-name="Calque 1"><path class="cls-1" d="M136.49,110.09"/><path class="cls-2" d="M215.47,53.49C216.24,24.78,195.15.87,165.89.09s-53.6,21.85-54.37,50.56c0,.17,0,.34,0,.5h0l-2.26,132.52a3.08,3.08,0,0,0,5.36,2.12L200.34,88.5A51.28,51.28,0,0,0,215.47,53.49Z"/><path class="cls-3" d="M19.3,90a6.16,6.16,0,0,1-4.76-2.17l-.34-.4A51.28,51.28,0,0,1,0,52C0,23.28,23.73,0,53,0c28.84,0,52.31,22.61,53,50.75q0,.62,0,1.25c0,.17,0,.34,0,.5V82.9a6.16,6.16,0,0,1-6.09,6.16Z"/><path class="cls-4" d="M104,97.83l0,6.08v4.54l-.24,75.31a3,3,0,0,1-5.21,2L58.7,140.82,45.59,126l-1.88-2.12-1.5-1.69L23,100.6l-.15-.16h0a3,3,0,0,1,2-5.07l76-.49A3,3,0,0,1,104,97.83Z"/></g></g></svg>