<svg id="Calque_1" data-name="Calque 1" xmlns="http://www.w3.org/2000/svg" viewBox="0 0 24 24"><title>PlusLogo</title><g id="Ellipse_1427" data-name="Ellipse 1427"><circle cx="12" cy="12" r="12" fill="none"/><path d="M12,24A12,12,0,1,1,24,12,12,12,0,0,1,12,24ZM12,1.5A10.5,10.5,0,1,0,22.5,12,10.51,10.51,0,0,0,12,1.5Z" fill="#243153"/></g><path d="M17.84,11.42H12.92V6.5a.75.75,0,0,0-1.5,0v4.92H6.5a.75.75,0,0,0,0,1.5h4.92v4.92a.75.75,0,0,0,1.5,0V12.92h4.92a.75.75,0,0,0,0-1.5Z" fill="#243153"/></svg>